# xmcd
#
# Track frame offsets:
#	150
#	18974
#	37338
#	51703
#	69403
#	86027
#	101953
#	118224
#	134702
#	151522
#
# Disc length: 2258 seconds
#
# Revision: 5
# Processed by: cddbd v1.5.1PL2 Copyright (c) Steve Scherf et al.
# Submitted via: dBpowerAMP V4.0
#
DISCID=9308d00a
DTITLE=Ane Brun - Duets
DYEAR=2005
DGENRE=Ballad
TTITLE0=Little Lights (Feat. Syd Matters)
TTITLE1=Lift Me (Feat. Madrugada)
TTITLE2=Rubber and Soul (Feat. Teitur)
TTITLE3=This Road (Feat. Lars Bygdén)
TTITLE4=Stop (Feat. Liv Widell)
TTITLE5=Across The Bridge (Feat. Ellekari Larsson)
TTITLE6=Easier (Feat. Magnus Tingsek)
TTITLE7=Love and Misery (Feat. Tobias Fröberg)
TTITLE8=Such A Common Bird (Feat. Wendy McNeill)
TTITLE9=Song No. 6 (Feat. Ron Sexsmith)
EXTD=
EXTT0=
EXTT1=
EXTT2=
EXTT3=
EXTT4=
EXTT5=
EXTT6=
EXTT7=
EXTT8=
EXTT9=
PLAYORDER=
